<svg xmlns="http://www.w3.org/2000/svg" width="120" height="65" viewBox="0 0 120 65">
    <path fill="#D7000F" fill-rule="nonzero" d="M59.461 61.058V3.943H4v57.115h55.462zM0 65V0h119.46v65H0zm110.046-49.957l1.475-1.386c.505-.493-.058-1.053-.058-1.053l-4.823-4.048c-.45-.53-1.013.023-1.013.023l-1.934 1.982H74.567s-2.474-1.76-4.072-2.15c-.696-.167-1.358-.365-1.358.622v26.346c0 8.836.41 14.045-2.952 21.883 0 0-.088.126-.037.201 0 0 .036.106.213.013 1.399-.787 5.507-3.204 7.54-7.25 1.445-2.878 1.339-6.245 1.287-18.045l-.028-3.208 1.035 1.998c.283.632.94.552.94.552l8.962.01.039 3.893s5.417-.279 5.84-2.397l-.006-.735v-.757c5.754.003 11.202.003 12.16-.01v19.442c0 .789-.375 1.186-1.132 1.186l-3.48.019V40.64l-.003-.001v-.51l1.333-1.417c.488-.521-.054-.978-.054-.978l-4.483-3.763c-.417-.492-.94.022-.94.022l-1.798 1.843h-5.185l-.475.01h-2.962c-.457-.235-2.581-1.485-4.594-1.86-1.152-.215-1.114.88-1.114.88v18.735s-.048.374.39.312c1.038-.11 3.89-.521 5.286-1.812h8.884s1.583 2.213 5.376 2.223c.402.002.338-.387.338-.387v-.296c2.125.803 3.891 2.655 4.555 3.662 0 0 .518.978 1.586.835 2.467-.328 4.351-2.253 4.388-6.17V15.044zm-5.916-.536V29.92c-.818-1.11-2.35-3.037-3-3.605-.87-.735-1.851.623-2.593 1.357H91.97v-4.016h10.623c.488 0 .635-.41.368-.86-.283-.48-2.654-3.574-3.513-4.322-.868-.735-1.85.623-2.592 1.357H91.97V18.034s.903-.813 1.67-1.652c.385-.421.266-1.1-.861-1.881h11.286l.065.006zM75.149 27.7l-.085-9.61V14.5H86.05v5.331h-9.526s-.687-.046-.483.75l1.26 2.4c.298.676.842.675.842.675h7.907v3.122l.009.894H75.356s-.097-.006-.207.028zm9.894 20.53v-8.494h8.693v8.494h-8.693zM38.841 24.824c3.947.004 6.794.004 6.785-.005.582-.004 1.036-.015 1.212-.039.723-.099 2.15-2.039 2.865-1.482.725.562 3.834 4.093 3.834 4.093s.472.596.09 1.106l-1.058.81v13.505h.006v9.377c-.037 3.917-1.922 5.841-4.388 6.171-1.068.142-1.586-.835-1.586-.835-.756-1.148-2.94-3.39-5.457-3.932v.89s.063.39-.339.388c-3.793-.01-5.376-2.224-5.376-2.224h-9.414c-1.395 1.291-4.248 1.703-5.287 1.812-.436.063-.39-.31-.39-.31V38.885c-.314.166-.503.25-.503.25-2.059.863-4.068.674-4.068.674V53.5c.002.753-.123 1-.123 1-.795 2.025-3.57 3.28-4.967 3.778-.818.236-.759-.56-.759-.56V24.596s-.111-1.205.78-1.105c1.54.158 4.836 1.29 4.836 1.29l7.334.016c-.969-2.68-3.27-4.515-3.27-4.515a2.212 2.212 0 0 1-.184-.17H10.54c-.514-.023-.7-.477-.7-.477l-.99-2.701c-.308-.739.474-.742.474-.742h39.749l1.504-1.258s.864-.808 1.583.198l2.575 4.1s.416.75-.31.88H39.591c.49.478 1.032 1.044 1.326 1.473 0 0 .477.516-.066 1.086 0 0-.84 1.027-2.01 2.154zm-4.705-.007l2.422-4.706H24.527c.827.61 1.708 1.319 2.493 2.074 0 0 .607.417.24 1.048 0 0-.558.82-1.277 1.57l8.153.014zM23.17 36.982c1.377.514 2.55 1.198 2.876 1.365h3.28l.476-.01h5.396l.963-.987c-2.572.05-2.654-1.586-2.654-4.44v-4.228h-5.08c-1.572 3.788-2.66 5.978-5.257 8.3zm15.8.358l3.45 2.895s.523.52.054.979L41.14 42.59v.55l.003.002v9.257l4.515-.024c.757 0 1.132-.397 1.132-1.185v-8.316h.008v-5.555l-7.829.02zm7.828-8.658h-8.14v3.22c0 1.312.172 1.521 1.37 1.521h6.77v-4.741zM15.767 38.83c3.572-2.033 6.687-7.156 6.93-10.148h-6.93V38.83zm10.372 9.987h9.224v-6.621H26.14v6.62zm21.92-35.182H16.574c-.513-.023-.699-.476-.699-.476l-.99-2.58c-.309-.738.474-.74.474-.74h27.346L44.21 8.58s.864-.808 1.582.199l2.576 3.976s.417.751-.31.88z"/>
</svg>
